<?xml version="1.0" encoding="iso-8859-1"?>
<!-- Generator: Adobe Illustrator 19.0.0, SVG Export Plug-In . SVG Version: 6.00 Build 0)  -->
<svg version="1.1" id="Capa_1" xmlns="http://www.w3.org/2000/svg" xmlns:xlink="http://www.w3.org/1999/xlink" x="0px" y="0px"
	 viewBox="0 0 511.999 511.999" style="enable-background:new 0 0 511.999 511.999;" xml:space="preserve">
<g>
	<g>
		<path d="M473.534,259.391c-5.651,0-10.869,1.378-15.497,3.455c-7.036-8.998-17.957-14.822-30.268-14.834
			c-6.362,0-12.214,1.688-17.242,4.217l-0.526,0.292l-15.72,9.324c-7.047-8.427-17.602-13.827-29.444-13.833
			c-6.362,0-12.214,1.688-17.242,4.217l-0.629,0.355l-60.187,36.863c-13.592-4.016-28.683-8.421-43.265-12.557
			c-15.383-4.365-30.177-8.421-42.035-11.413c-5.938-1.499-11.132-2.729-15.377-3.604c-2.128-0.441-4.016-0.789-5.692-1.046
			c-1.699-0.252-3.118-0.429-4.719-0.435c-1.236,0.006-2.306,0.114-3.524,0.263c-4.433,0.584-10.738,1.934-18.175,3.678
			c-15.194,3.57-34.586,8.764-45.301,11.681v-18.135c0-12.585-10.297-22.883-22.883-22.883H22.883
			C10.297,234.998,0,245.295,0,257.88v177.339c0,12.585,10.297,22.883,22.883,22.883h62.926c12.585,0,22.883-10.297,22.883-22.883
			v-13.77c13.581,2.957,43.723,9.467,75.501,15.994c21.493,4.411,43.705,8.827,62.051,12.156c9.176,1.664,17.385,3.055,24.107,4.039
			c6.779,0.979,11.83,1.585,15.68,1.608c2.997-0.011,5.835-0.578,8.901-1.425c5.704-1.608,12.196-4.336,19.627-7.946
			c25.862-12.608,63.006-36.229,98.045-59.603c34.976-23.346,67.692-46.399,83.721-57.44c10.034-6.916,15.675-18.603,15.675-30.971
			C511.983,276.627,494.78,259.402,473.534,259.391z M91.529,435.225c0,3.1-2.62,5.72-5.72,5.72H22.883c-3.1,0-5.72-2.62-5.72-5.72
			V257.886c0-3.1,2.62-5.72,5.72-5.72h62.926c3.1,0,5.72,2.62,5.72,5.72V435.225z M486.594,314.697
			c-19.713,13.581-63.825,44.729-106.523,72.463c-21.332,13.855-42.309,26.847-59.511,36.263
			c-8.592,4.708-16.258,8.512-22.385,11.058c-3.06,1.269-5.738,2.225-7.861,2.814c-2.111,0.6-3.702,0.801-4.279,0.789
			c-1.871,0.017-6.824-0.475-13.191-1.425c-22.539-3.301-64.728-11.728-101.055-19.307c-18.18-3.793-34.925-7.374-47.126-10.006
			c-7.088-1.527-12.557-2.723-15.967-3.461V293.811c1.677-0.464,3.873-1.064,6.51-1.779c9.045-2.454,22.848-6.133,35.228-9.181
			c6.184-1.527,12.025-2.888,16.664-3.856c2.311-0.48,4.331-0.863,5.881-1.11c1.521-0.252,2.705-0.343,2.717-0.326
			c0.029-0.006,0.927,0.051,2.151,0.241c4.737,0.709,14.444,2.98,26.268,6.075c35.634,9.308,91.821,26.132,114.521,33.025
			c7.854,2.368,14.965,5.938,19.633,10.269c2.346,2.163,4.108,4.473,5.292,6.973c1.184,2.511,1.853,5.229,1.865,8.552
			c-0.006,6.733-2.706,12.751-7.116,17.173c-4.382,4.365-10.332,7.036-16.973,7.099l-22.145-2.168l-75.575-9.703
			c-4.703-0.6-9.005,2.717-9.611,7.419c-0.607,4.703,2.723,8.998,7.419,9.605l75.82,9.73l23.466,2.299h0.423
			c22.888-0.006,41.44-18.558,41.452-41.452c0.011-5.76-1.264-11.178-3.524-15.92c-3.403-7.145-8.878-12.677-15.068-16.888
			c-6.213-4.222-13.226-7.23-20.365-9.404c-3.981-1.207-8.998-2.729-14.73-4.451l46.571-28.529c3.02-1.487,6.11-2.328,9.382-2.334
			c5.549-0.006,10.56,2.145,14.348,5.624l-23.008,13.644c-4.073,2.415-5.417,7.683-2.997,11.756
			c2.42,4.073,7.683,5.423,11.761,3.004l53.408-31.675c3.037-1.505,6.144-2.351,9.427-2.351c5.921-0.006,11.247,2.46,15.108,6.373
			l-62.189,36.881c-4.079,2.415-5.417,7.683-2.997,11.761c2.42,4.073,7.683,5.417,11.761,2.997l67.246-39.884
			c0.652-0.109,1.31-0.269,1.951-0.544c1.378-0.584,2.5-1.51,3.363-2.609l2.099-1.247c3.037-1.505,6.144-2.351,9.427-2.351
			c5.898,0.006,11.172,2.375,15.057,6.242c3.867,3.885,6.235,9.164,6.242,15.068C494.832,305.052,491.537,311.333,486.594,314.697z"
			/>
	</g>
</g>
<g>
	<g>
		<path d="M314.096,183.923c-8.936,5.171-19.216,8.158-30.233,8.164c-16.739-0.006-31.812-6.762-42.79-17.722
			c-4.651-4.651-8.478-10.08-11.418-16.023h65.095c4.737,0,8.581-3.844,8.581-8.581c0-4.743-3.844-8.581-8.581-8.581h-70.57
			c-0.497-3.129-0.836-6.322-0.836-9.599c0-3.283,0.337-6.476,0.836-9.611h70.558c4.737,0,8.581-3.844,8.581-8.581
			c0-4.743-3.844-8.581-8.581-8.581h-65.083c2.946-5.938,6.779-11.362,11.424-16.018c10.978-10.967,26.052-17.722,42.784-17.729
			c11.018,0,21.297,2.992,30.233,8.164c4.101,2.38,9.353,0.979,11.728-3.124c2.375-4.101,0.979-9.353-3.124-11.728
			c-11.401-6.607-24.69-10.48-38.837-10.475c-33.477,0.006-61.914,21.217-72.834,50.902h-10.807c-4.737,0-8.581,3.838-8.581,8.581
			c0,4.737,3.844,8.581,8.581,8.581h6.625c-0.389,3.158-0.658,6.349-0.658,9.611c0,3.255,0.269,6.447,0.652,9.599h-6.619
			c-4.737,0.014-8.581,3.858-8.581,8.594s3.844,8.581,8.581,8.581h10.807c10.914,29.684,39.358,50.896,72.834,50.902
			c14.147,0,27.436-3.862,38.837-10.474c4.101-2.38,5.497-7.625,3.124-11.728C323.443,182.945,318.198,181.549,314.096,183.923z"/>
	</g>
</g>
<g>
</g>
<g>
</g>
<g>
</g>
<g>
</g>
<g>
</g>
<g>
</g>
<g>
</g>
<g>
</g>
<g>
</g>
<g>
</g>
<g>
</g>
<g>
</g>
<g>
</g>
<g>
</g>
<g>
</g>
</svg>
